<svg width="24" height="25" viewBox="0 0 24 25" fill="none" xmlns="http://www.w3.org/2000/svg">
<path fill-rule="evenodd" clip-rule="evenodd" d="M22 9.02148H20H13V6.02148H13.897H14.742H15.998H15.999H22V9.02148ZM13 22.0215H19V11.0215H13V22.0215ZM5 22.0215H11V11.0215H5V22.0215ZM2 6.02148H7.999H8H9.256H10.1H11V9.02148H4H2V6.02148ZM7.29325 3.72873C6.90225 3.33773 6.90225 2.70573 7.29325 2.31473C7.68325 1.92373 8.31625 1.92373 8.70725 2.31473C9.00825 2.61573 9.46825 3.18873 10.0743 4.02173H7.99925C7.73525 4.02173 7.48325 3.91873 7.29325 3.72873ZM16.7048 2.31473C17.0948 2.70573 17.0948 3.33773 16.7048 3.72873C16.5138 3.91873 16.2618 4.02173 15.9978 4.02173H13.9238C14.5298 3.18873 14.9888 2.61573 15.2908 2.31473C15.6808 1.92373 16.3138 1.92373 16.7048 2.31473ZM22 4.02148H18.816C19.189 2.96548 18.963 1.74548 18.119 0.900484C16.947 -0.271516 15.048 -0.271516 13.876 0.900484C13.436 1.34048 12.815 2.12648 11.999 3.27248C11.182 2.12648 10.562 1.34048 10.121 0.900484C8.95 -0.271516 7.05 -0.271516 5.878 0.900484C5.034 1.74548 4.808 2.96548 5.181 4.02148H2C0.895 4.02148 0 4.91748 0 6.02148V9.02148C0 10.1255 0.895 11.0215 2 11.0215H3V22.0215C3 23.1255 3.895 24.0215 5 24.0215H19C20.104 24.0215 21 23.1255 21 22.0215V11.0215H22C23.104 11.0215 24 10.1255 24 9.02148V6.02148C24 4.91748 23.104 4.02148 22 4.02148Z" fill="black"/>
</svg>
