
<svg width="25" height="24" viewBox="0 0 25 24" fill="none" xmlns="http://www.w3.org/2000/svg">
<g clip-path="url(#clip0_2558_10575)">
<path fill-rule="evenodd" clip-rule="evenodd" d="M21.305 7.49L22.775 6.02C23.825 7.83 24.375 9.88 24.375 12C24.375 18.62 18.995 24 12.375 24C5.755 24 0.375 18.62 0.375 12C0.375 5.38 5.755 0 12.375 0C14.605 0 16.765 0.62 18.645 1.78L17.125 3.23C15.675 2.44 14.055 2 12.375 2C6.865 2 2.375 6.49 2.375 12C2.375 17.51 6.865 22 12.375 22C17.885 22 22.375 17.51 22.375 12C22.375 10.41 22.005 8.88 21.305 7.49ZM17.975 11.9999C17.975 11.6299 17.935 11.2699 17.865 10.9199L19.475 9.3099C19.805 10.1699 19.975 11.0699 19.975 11.9999C19.975 13.1399 19.725 14.2299 19.245 15.2499C17.995 17.8899 15.295 19.5999 12.375 19.5999C8.185 19.5999 4.775 16.1899 4.775 11.9999C4.775 7.8099 8.185 4.3999 12.375 4.3999C13.375 4.3999 14.365 4.5999 15.285 4.9799L13.635 6.5499C13.225 6.4599 12.805 6.3999 12.375 6.3999C9.285 6.3999 6.775 8.9099 6.775 11.9999C6.775 15.0899 9.285 17.5999 12.375 17.5999C14.525 17.5999 16.515 16.3399 17.435 14.3899C17.795 13.6399 17.975 12.8399 17.975 11.9999Z" fill="#8A847F"/>
<path d="M24.375 4V2H22.375V0H20.375V2.59L12.375 10.59V9H10.375V14H15.375V12H13.785L21.785 4H24.375Z" fill="#8A847F"/>
</g>
<defs>
<clipPath id="clip0_2558_10575">
<rect width="24" height="24" fill="white" transform="translate(0.375)"/>
</clipPath>
</defs>
</svg>
