<svg width="23" height="19" viewBox="0 0 23 19" fill="none" xmlns="http://www.w3.org/2000/svg">
<path fill-rule="evenodd" clip-rule="evenodd" d="M10.875 18.6775C6.53302 15.7791 0.875 11.8535 0.875 6.5C0.875 2.91602 3.79102 0 7.375 0C8.63239 0 9.84174 0.37408 10.875 1.03693V3.69098C10.0227 2.63068 8.73859 2 7.375 2C4.89355 2 2.875 4.01855 2.875 6.5C2.875 10.4088 7.12396 13.7096 10.875 16.2664V18.6775ZM12.875 1.03705C13.9085 0.37415 15.1178 0 16.375 0C19.959 0 22.875 2.91602 22.875 6.5C22.875 11.8537 17.2176 15.7789 12.875 18.6772V16.2663C16.6265 13.7095 20.875 10.409 20.875 6.5C20.875 4.01855 18.8564 2 16.375 2C15.0115 2 13.7269 2.63062 12.875 3.69092V1.03705Z" fill="#8A847F"/>
</svg>
