<svg width="24" height="25" viewBox="0 0 24 25" fill="none" xmlns="http://www.w3.org/2000/svg">
<path fill-rule="evenodd" clip-rule="evenodd" d="M5.75 12.0254C5.75 12.9919 4.9665 13.7754 4 13.7754C3.0335 13.7754 2.25 12.9919 2.25 12.0254C2.25 11.0589 3.0335 10.2754 4 10.2754C4.9665 10.2754 5.75 11.0589 5.75 12.0254ZM13.75 12.0254C13.75 12.9919 12.9665 13.7754 12 13.7754C11.0335 13.7754 10.25 12.9919 10.25 12.0254C10.25 11.0589 11.0335 10.2754 12 10.2754C12.9665 10.2754 13.75 11.0589 13.75 12.0254ZM20 13.7754C20.9665 13.7754 21.75 12.9919 21.75 12.0254C21.75 11.0589 20.9665 10.2754 20 10.2754C19.0335 10.2754 18.25 11.0589 18.25 12.0254C18.25 12.9919 19.0335 13.7754 20 13.7754Z" fill="black"/>
</svg>
