<svg width="56" height="58" viewBox="0 0 56 58" fill="none" xmlns="http://www.w3.org/2000/svg">
<path d="M40.543 18.418C40.5492 17.8947 40.35 17.3899 39.988 17.012C39.6052 16.6584 39.1031 16.462 38.582 16.462C38.0608 16.462 37.5588 16.6584 37.176 17.012L16.012 38.176C15.6414 38.5501 15.4335 39.0554 15.4335 39.582C15.4335 40.1086 15.6414 40.6139 16.012 40.988C16.3978 41.3374 16.8975 41.5346 17.418 41.543V41.543C17.9384 41.5346 18.4381 41.3374 18.824 40.988L39.951 19.824C40.1403 19.6424 40.2905 19.424 40.3923 19.1822C40.4941 18.9404 40.5454 18.6803 40.543 18.418V18.418Z" fill="#6B78E9"/>
<path d="M21.599 26.706C22.8357 26.706 24.0447 26.3393 25.073 25.6522C26.1013 24.9651 26.9028 23.9885 27.376 22.8459C27.8493 21.7033 27.9731 20.4461 27.7319 19.2331C27.4906 18.0201 26.895 16.906 26.0206 16.0315C25.1461 15.157 24.0319 14.5614 22.8189 14.3201C21.6059 14.0789 20.3487 14.2027 19.2061 14.676C18.0635 15.1493 17.0869 15.9507 16.3998 16.979C15.7127 18.0073 15.346 19.2163 15.346 20.453C15.346 22.1114 16.0048 23.7019 17.1775 24.8745C18.3501 26.0472 19.9406 26.706 21.599 26.706V26.706ZM19.305 20.453C19.305 19.8446 19.5467 19.2611 19.9769 18.8309C20.4071 18.4007 20.9906 18.159 21.599 18.159C22.2074 18.159 22.7909 18.4007 23.2211 18.8309C23.6513 19.2611 23.893 19.8446 23.893 20.453C23.8835 21.0584 23.6387 21.6364 23.2106 22.0646C22.7824 22.4927 22.2044 22.7375 21.599 22.747C21.2978 22.747 20.9995 22.6877 20.7211 22.5724C20.4428 22.4571 20.1899 22.2881 19.9769 22.0751C19.7639 21.8621 19.5949 21.6092 19.4796 21.3309C19.3643 21.0526 19.305 20.7542 19.305 20.453V20.453Z" fill="#6B78E9"/>
<path d="M34.401 31.294C33.1643 31.294 31.9553 31.6607 30.927 32.3478C29.8987 33.0349 29.0972 34.0115 28.624 35.1541C28.1507 36.2967 28.0269 37.5539 28.2681 38.7669C28.5094 39.9799 29.1049 41.094 29.9794 41.9685C30.8539 42.843 31.9681 43.4386 33.1811 43.6798C34.394 43.9211 35.6513 43.7973 36.7939 43.324C37.9365 42.8507 38.9131 42.0493 39.6002 41.021C40.2873 39.9927 40.654 38.7837 40.654 37.547C40.654 35.8886 39.9952 34.2981 38.8225 33.1255C37.6499 31.9528 36.0594 31.294 34.401 31.294ZM36.695 37.547C36.695 38.1554 36.4533 38.7389 36.0231 39.1691C35.5929 39.5993 35.0094 39.841 34.401 39.841C33.7926 39.841 33.2091 39.5993 32.7789 39.1691C32.3487 38.7389 32.107 38.1554 32.107 37.547C32.107 36.9386 32.3487 36.3551 32.7789 35.9249C33.2091 35.4947 33.7926 35.253 34.401 35.253C35.0094 35.253 35.5929 35.4947 36.0231 35.9249C36.4533 36.3551 36.695 36.9386 36.695 37.547Z" fill="#6B78E9"/>
<path d="M52.42 29.555C52.3293 29.3841 52.2819 29.1935 52.2819 29C52.2819 28.8065 52.3293 28.6159 52.42 28.445L54.492 24.227C55.1011 23.0086 55.2058 21.5993 54.7833 20.3044C54.3609 19.0094 53.4454 17.9329 52.235 17.308L48.091 15.088C47.9195 15.0008 47.7702 14.8754 47.6548 14.7214C47.5393 14.5675 47.4607 14.3891 47.425 14.2L46.5 9.575C46.2815 8.22941 45.5413 7.02421 44.44 6.22075C43.3387 5.4173 41.9651 5.08036 40.617 5.283L35.955 5.949C35.7684 5.97459 35.5785 5.95795 35.3991 5.90032C35.2198 5.84268 35.0558 5.74552 34.919 5.616L31.7 2.323C31.2152 1.83525 30.6387 1.44817 30.0037 1.18403C29.3687 0.919899 28.6877 0.78392 28 0.78392C27.3123 0.78392 26.6313 0.919899 25.9963 1.18403C25.3614 1.44817 24.7849 1.83525 24.3 2.323L20.896 5.616C20.7625 5.7503 20.5988 5.85063 20.4185 5.90857C20.2383 5.96651 20.0467 5.98038 19.86 5.949L15.272 5.283C13.943 5.12108 12.6025 5.47635 11.5281 6.27526C10.4537 7.07418 9.72758 8.25559 9.50001 9.575L8.57501 14.2C8.53931 14.3891 8.46071 14.5675 8.34525 14.7214C8.22979 14.8754 8.08055 15.0008 7.90901 15.088L3.76501 17.308C2.55465 17.9329 1.63913 19.0094 1.2167 20.3044C0.794274 21.5993 0.89893 23.0086 1.50801 24.227L3.58001 28.445C3.67072 28.6159 3.71815 28.8065 3.71815 29C3.71815 29.1935 3.67072 29.3841 3.58001 29.555L1.50801 33.773C0.89893 34.9914 0.794274 36.4007 1.2167 37.6956C1.63913 38.9906 2.55465 40.0671 3.76501 40.692L7.90901 42.912C8.08055 42.9992 8.22979 43.1246 8.34525 43.2786C8.46071 43.4325 8.53931 43.6109 8.57501 43.8L9.50001 48.425C9.70938 49.6371 10.3403 50.7362 11.2813 51.5283C12.2223 52.3204 13.413 52.7545 14.643 52.754H15.383L20.045 52.088C20.2316 52.0624 20.4216 52.079 20.6009 52.1367C20.7802 52.1943 20.9443 52.2915 21.081 52.421L24.485 55.714C24.9673 56.2062 25.543 56.5973 26.1783 56.8643C26.8137 57.1312 27.4959 57.2687 28.185 57.2687C28.8742 57.2687 29.5564 57.1312 30.1917 56.8643C30.827 56.5973 31.4027 56.2062 31.885 55.714L35.289 52.421C35.4272 52.2936 35.5914 52.1979 35.7703 52.1404C35.9492 52.0829 36.1385 52.065 36.325 52.088L40.987 52.754C42.2794 52.8459 43.5598 52.4535 44.5789 51.6533C45.5979 50.8531 46.2827 49.7023 46.5 48.425L47.425 43.8C47.4607 43.6109 47.5393 43.4325 47.6548 43.2786C47.7702 43.1246 47.9195 42.9992 48.091 42.912L52.235 40.692C53.4454 40.0671 54.3609 38.9906 54.7833 37.6956C55.2058 36.4007 55.1011 34.9914 54.492 33.773L52.42 29.555ZM50.607 36.955L46.204 39.286C45.5037 39.6588 44.8968 40.1853 44.429 40.8261C43.9612 41.4669 43.6446 42.2054 43.503 42.986L42.8 47.759C42.7454 48.0801 42.5683 48.3675 42.3061 48.5607C42.0439 48.754 41.7169 48.8379 41.394 48.795L36.732 48.129C35.9451 48.0095 35.1412 48.0743 34.3836 48.3183C33.626 48.5623 32.9353 48.9788 32.366 49.535L28.999 52.828C28.7608 53.0438 28.4509 53.1633 28.1295 53.1633C27.8081 53.1633 27.4982 53.0438 27.26 52.828L23.856 49.535C23.3688 49.0546 22.7905 48.6762 22.1552 48.4221C21.5198 48.1679 20.8402 48.0431 20.156 48.055H19.416L14.754 48.684C14.5913 48.7401 14.4182 48.7601 14.2469 48.7425C14.0757 48.7249 13.9103 48.6702 13.7624 48.5821C13.6144 48.494 13.4875 48.3748 13.3903 48.2326C13.2932 48.0905 13.2283 47.9288 13.2 47.759L12.386 43.097C12.2444 42.3164 11.9278 41.5779 11.46 40.9371C10.9922 40.2963 10.3854 39.7698 9.68501 39.397L5.80001 37.177C5.51791 37.0273 5.3057 36.773 5.20887 36.4687C5.11203 36.1644 5.13829 35.8342 5.28201 35.549L7.35401 31.294C7.70099 30.579 7.88127 29.7947 7.88127 29C7.88127 28.2053 7.70099 27.4209 7.35401 26.706L5.09701 22.451C5.0316 22.2985 4.99798 22.1342 4.99819 21.9682C4.9984 21.8023 5.03244 21.6381 5.09823 21.4857C5.16403 21.3334 5.26019 21.196 5.38085 21.0821C5.50151 20.9681 5.64414 20.88 5.80001 20.823L9.98101 18.603C10.6814 18.2302 11.2882 17.7037 11.756 17.0629C12.2238 16.4221 12.5404 15.6836 12.682 14.903L13.2 10.241C13.2033 10.0733 13.2458 9.90876 13.3242 9.76049C13.4026 9.61223 13.5146 9.4844 13.6513 9.38726C13.788 9.29013 13.9456 9.22639 14.1114 9.20116C14.2772 9.17594 14.4466 9.18992 14.606 9.242L19.268 9.871C20.0547 9.98199 20.8563 9.91313 21.6125 9.6696C22.3688 9.42607 23.0599 9.01421 23.634 8.465L27.038 5.172C27.2762 4.9562 27.5861 4.83668 27.9075 4.83668C28.2289 4.83668 28.5388 4.9562 28.777 5.172L32.144 8.465C32.715 9.01884 33.4058 9.43376 34.1629 9.67758C34.92 9.92141 35.7232 9.98759 36.51 9.871L41.172 9.242C41.3309 9.20428 41.496 9.20091 41.6562 9.23212C41.8165 9.26332 41.9682 9.32839 42.1013 9.42296C42.2344 9.51753 42.3458 9.63943 42.428 9.7805C42.5102 9.92158 42.5614 10.0786 42.578 10.241L43.392 14.903C43.5336 15.6836 43.8502 16.4221 44.318 17.0629C44.7858 17.7037 45.3927 18.2302 46.093 18.603L50.274 20.823C50.5561 20.9727 50.7683 21.227 50.8652 21.5313C50.962 21.8356 50.9357 22.1658 50.792 22.451L48.72 26.706C48.373 27.4209 48.1928 28.2053 48.1928 29C48.1928 29.7947 48.373 30.579 48.72 31.294L50.792 35.549C50.9326 35.7954 50.98 36.084 50.9257 36.3625C50.8714 36.6409 50.7189 36.8905 50.496 37.066L50.607 36.955Z" fill="#6B78E9"/>
</svg>
