<svg width="49" height="49" viewBox="0 0 49 49" fill="none" xmlns="http://www.w3.org/2000/svg">
<path fill-rule="evenodd" clip-rule="evenodd" d="M31.3377 34.451C28.0188 37.2856 23.7118 38.9971 19.0051 38.9971C8.51181 38.9971 0.00509644 30.4904 0.00509644 19.9971C0.00509644 9.50378 8.51181 0.99707 19.0051 0.99707C29.4984 0.99707 38.0051 9.50378 38.0051 19.9971C38.0051 24.7038 36.2936 29.0108 33.4591 32.3297L47.5658 46.4364C48.1515 47.0222 48.1515 47.9719 47.5658 48.5577C46.98 49.1435 46.0302 49.1435 45.4444 48.5577L31.3377 34.451ZM35.0051 19.9971C35.0051 11.1606 27.8415 3.99707 19.0051 3.99707C10.1687 3.99707 3.0051 11.1606 3.0051 19.9971C3.0051 28.8335 10.1687 35.9971 19.0051 35.9971C27.8415 35.9971 35.0051 28.8335 35.0051 19.9971Z" fill="black"/>
</svg>
