<svg width="72" height="23" viewBox="0 0 72 23" fill="none" xmlns="http://www.w3.org/2000/svg">
<path fill-rule="evenodd" clip-rule="evenodd" d="M51.4379 15.3771C51.4516 11.8763 48.5526 10.3546 46.233 9.13698C44.6751 8.31923 43.3786 7.63864 43.401 6.58786C43.4174 5.79271 44.1764 4.945 45.8324 4.73143C47.7717 4.54393 49.7257 4.88453 51.4871 5.71714L52.4959 1.02514C50.7812 0.380673 48.9654 0.0468852 47.1336 0.0394287C41.4821 0.0394287 37.4769 3.05243 37.4407 7.36986C37.4046 10.5537 40.2894 12.3411 42.4679 13.4024C44.7021 14.4867 45.4546 15.1833 45.4447 16.1559C45.4447 17.6443 43.6606 18.2981 42.0144 18.3244C39.2187 18.369 37.5617 17.5959 36.2478 16.9828L36.1231 16.9247L35.075 21.781C36.4156 22.3987 38.8897 22.9343 41.4559 22.9606C47.4786 22.9606 51.4214 19.9837 51.4411 15.3771H51.4379ZM27.6821 0.443572L18.3934 22.6123H12.3313L7.76086 4.922C7.48157 3.83114 7.24172 3.43357 6.39729 2.97357C5.01072 2.22771 2.74357 1.52457 0.739288 1.08757L0.877288 0.430429H10.6326C11.9452 0.435812 13.0593 1.39401 13.2611 2.691L15.6761 15.5217L21.6627 0.443572H27.6821ZM71.7107 22.6057H66.4076L65.7143 19.3036H58.3576L57.1616 22.6123H51.1421L59.7409 2.07C60.1483 1.08197 61.1134 0.439003 62.1821 0.443572H67.0811L71.7107 22.6057ZM60.007 14.7594L63.0266 6.43343L64.7647 14.7594H60.007ZM31.1387 22.6123L35.8964 0.443572H30.1464L25.4019 22.6123H31.1387Z" fill="white"/>
</svg>
